PathFileType	4	(x/y/z)	S06_PSF_T04
DataRate	CameraRate	NumFrames	NumMarkers	Units	OrigDataRate	OrigDataStartFrame	OrigNumFrames
240	240	7	51	mm	240	360	411
Frame#	Time	Sternum			R.Acromium			L.Acromium			Top.Head			R.ASIS			L.ASIS			R.PSIS			L.PSIS			R.Great.Tro			L.Great.Tro			R.Iliac.Crest			L.Iliac.Crest			V.Sacral			R.Thigh.Upper.Post			R.Thigh.Lower.Ant			R.Thigh.Lower.Post			R.Thigh.Upper.Ant			R.Knee.Lat			R.Knee.Med			R.Shank.Upper.Post			R.Shank.Lower.Ant			R.Shank.Lower.Post			R.Shank.Upper.Ant			R.Ankle.Lat			R.Ankle.Med			R.Heel.Upper			R.Heel.Med			R.Heel.Lat			R.Toe.Lat			R.Toe.Med			R.Toe.Tip			L.Thigh.Upper.Post			L.Thigh.Lower.Ant			L.Thigh.Lower.Post			L.Thigh.Upper.Ant			L.Knee.Lat			L.Knee.Med			L.Shank.Upper.Post			L.Shank.Lower.Ant			L.Shank.Lower.Post			L.Shank.Upper.Ant			L.Ankle.Lat			L.Ankle.Med			L.Heel.Upper			L.Heel.Med			L.Heel.Lat			L.Toe.Lat			L.Toe.Med			L.Toe.Tip			Cervical.Spine			Back			
		X1	Y1	Z1	X2	Y2	Z2	X3	Y3	Z3	X4	Y4	Z4	X5	Y5	Z5	X6	Y6	Z6	X7	Y7	Z7	X8	Y8	Z8	X9	Y9	Z9	X10	Y10	Z10	X11	Y11	Z11	X12	Y12	Z12	X13	Y13	Z13	X14	Y14	Z14	X15	Y15	Z15	X16	Y16	Z16	X17	Y17	Z17	X18	Y18	Z18	X19	Y19	Z19	X20	Y20	Z20	X21	Y21	Z21	X22	Y22	Z22	X23	Y23	Z23	X24	Y24	Z24	X25	Y25	Z25	X26	Y26	Z26	X27	Y27	Z27	X28	Y28	Z28	X29	Y29	Z29	X30	Y30	Z30	X31	Y31	Z31	X32	Y32	Z32	X33	Y33	Z33	X34	Y34	Z34	X35	Y35	Z35	X36	Y36	Z36	X37	Y37	Z37	X38	Y38	Z38	X39	Y39	Z39	X40	Y40	Z40	X41	Y41	Z41	X42	Y42	Z42	X43	Y43	Z43	X44	Y44	Z44	X45	Y45	Z45	X46	Y46	Z46	X47	Y47	Z47	X48	Y48	Z48	X49	Y49	Z49	X50	Y50	Z50	X51	Y51	Z51	

360	1.4958	384.03	1291	351.59	257.45	1499.8	514.85	260.82	1498.3	162.51	317.93	1814.9	338.51	327.81	1058.8	469.59	342.25	1058.1	216.92	133.32	1075.9	370.99	136.25	1082.1	290.47	279.45	985.39	518.76	243.21	984.12	161.17	241.83	1130.5	499.14	272.79	1131.5	180.74	121.26	1044.1	332.18	388.8	761.97	515.52	473.61	711.22	482.65	415.55	677.11	499.55	449.84	798.76	493.27	470.08	583.83	491.35	477.43	585.42	362.89	386.63	371.89	498.95	432.47	296.82	481.24	367.58	297.4	488.17	450.8	370.72	492.47	370.1	163.33	469.09	390.73	164.58	384.38	303.93	128.66	417.13	309.15	94.598	389.49	303.33	99.082	454.21	471.78	64.43	509.64	506.53	60.603	394.48	569.79	69.876	442.89	293.08	724.43	191.11	335.17	643.33	252.61	268.15	638.75	210.59	354.92	733.18	227.74	242.84	543.45	229.23	266.91	551.84	348.8	165.74	321.43	244.38	220.89	251.77	251.56	150.28	251.53	264.31	231.73	320.88	237.73	177.39	109.54	269.26	185.29	129.52	355.95	95.113	75.136	309.92	96.87	46.237	341.08	99.94	50.782	279.39	280.32	45.103	246.71	296.67	41.053	367.59	370.38	54.206	315.05	205.69	1553.1	337.76	143.21	1282.2	334.05
361	1.5	389.24	1290.6	351.63	262.6	1499.5	514.93	266.12	1498.1	162.59	323.19	1814.6	338.73	333.09	1058.6	469.73	347.19	1057.6	217.09	138.51	1075.8	371.32	141.32	1081.9	290.78	284.77	985.17	518.98	247.87	983.83	161.47	247.13	1130.3	499.32	277.9	1131.1	180.87	126.4	1043.9	332.55	393.16	761.38	515.16	477.82	710.35	482.28	419.64	676.44	499.08	454.38	797.95	492.98	474.6	583.2	490.99	481.49	584.74	362.58	396.6	369.03	498.49	444.45	295.36	480.87	379.63	294.07	487.62	460.76	369.67	492.13	385.88	159.98	468.52	406.71	161.88	383.9	320.91	123.41	416.33	327.24	89.608	388.68	321.06	93.803	453.34	490.23	63.938	509.38	525.45	61.336	394.39	588.23	72.352	443.08	295.94	724.21	191.44	337.61	642.7	252.72	270.48	638.67	210.83	357.92	732.5	227.97	244.48	543.4	229.41	268.64	551.62	349.01	166.53	321.58	244.6	221.48	251.74	251.72	150.89	251.75	264.53	232.54	320.84	237.87	177.52	109.64	269.41	185.58	129.58	356.1	95.194	75.234	310.04	96.915	46.292	341.17	99.993	50.924	279.48	280.35	45.11	246.72	296.73	40.936	367.62	370.45	54.038	315.04	210.93	1552.8	337.83	148.43	1281.9	334.08
362	1.5042	394.47	1290.3	351.69	267.77	1499.2	515.01	271.42	1497.8	162.66	328.46	1814.3	338.95	338.4	1058.3	469.88	352.18	1057.1	217.25	143.73	1075.6	371.64	146.42	1081.7	291.09	290.1	984.9	519.2	252.56	983.52	161.76	252.44	1130.1	499.51	283.05	1130.7	181.02	131.56	1043.8	332.92	397.38	760.67	514.84	481.86	709.33	481.96	423.54	675.64	498.66	458.76	796.99	492.73	478.93	582.43	490.66	485.39	583.93	362.27	406.46	366.2	498.01	456.31	293.98	480.49	391.6	290.82	487.03	470.58	368.64	491.79	401.63	156.82	467.89	422.66	159.4	383.37	337.93	118.38	415.47	345.36	84.889	387.79	338.82	88.761	452.39	508.58	63.682	509.03	544.22	62.372	394.23	606.48	75.095	443.21	298.84	723.96	191.76	340.09	642.05	252.83	272.85	638.57	211.07	360.95	731.81	228.2	246.16	543.35	229.58	270.42	551.38	349.2	167.35	321.74	244.82	222.08	251.72	251.89	151.52	251.98	264.76	233.36	320.79	238.01	177.66	109.74	269.56	185.88	129.63	356.25	95.28	75.332	310.17	96.964	46.349	341.26	100.05	51.069	279.58	280.37	45.119	246.73	296.8	40.816	367.65	370.53	53.859	315.04	216.17	1552.6	337.9	153.67	1281.6	334.11
363	1.5083	399.71	1289.9	351.74	272.95	1498.9	515.1	276.72	1497.6	162.75	333.71	1814	339.17	343.72	1057.9	470.04	357.22	1056.5	217.43	148.98	1075.4	371.97	151.54	1081.4	291.39	295.44	984.56	519.43	257.28	983.19	162.06	257.78	1129.8	499.7	288.24	1130.2	181.16	136.76	1043.5	333.29	401.45	759.84	514.56	485.75	708.15	481.71	427.27	674.72	498.29	463	795.89	492.53	483.08	581.54	490.36	489.16	582.98	361.99	416.22	363.41	497.49	468.05	292.68	480.09	403.48	287.65	486.4	480.25	367.65	491.45	417.32	153.86	467.22	438.55	157.14	382.79	354.95	113.6	414.55	363.48	80.458	386.82	356.59	83.971	451.37	526.81	63.668	508.6	562.83	63.719	393.98	624.51	78.108	443.28	301.77	723.7	192.07	342.6	641.4	252.94	275.27	638.45	211.3	364	731.1	228.43	247.89	543.28	229.74	272.26	551.14	349.4	168.2	321.9	245.04	222.71	251.7	252.05	152.17	252.22	264.99	234.22	320.73	238.15	177.8	109.84	269.72	186.18	129.69	356.4	95.371	75.432	310.3	97.016	46.407	341.36	100.1	51.218	279.68	280.4	45.129	246.73	296.87	40.694	367.68	370.61	53.669	315.05	221.42	1552.2	337.97	158.92	1281.3	334.16
364	1.5125	404.98	1289.5	351.81	278.13	1498.5	515.19	282.02	1497.3	162.84	338.97	1813.6	339.39	349.07	1057.6	470.2	362.31	1056	217.61	154.25	1075.2	372.29	156.69	1081.1	291.7	300.78	984.18	519.66	262.04	982.83	162.36	263.14	1129.5	499.89	293.47	1129.7	181.32	141.99	1043.3	333.66	405.38	758.89	514.34	489.49	706.84	481.52	430.84	673.69	497.97	467.11	794.64	492.38	487.06	580.52	490.07	492.79	581.9	361.71	425.86	360.66	496.95	479.65	291.48	479.67	415.25	284.59	485.72	489.77	366.69	491.1	432.94	151.1	466.49	454.35	155.12	382.17	371.95	109.08	413.57	381.57	76.327	385.79	374.35	79.445	450.28	544.9	63.9	508.09	581.23	65.381	393.66	642.3	81.391	443.27	304.74	723.42	192.38	345.17	640.73	253.05	277.74	638.32	211.53	367.1	730.39	228.66	249.68	543.2	229.91	274.14	550.89	349.58	169.09	322.06	245.26	223.36	251.67	252.21	152.85	252.46	265.22	235.1	320.67	238.28	177.96	109.95	269.88	186.49	129.75	356.56	95.466	75.533	310.45	97.072	46.468	341.46	100.16	51.37	279.78	280.42	45.141	246.75	296.95	40.569	367.72	370.71	53.466	315.05	226.67	1551.9	338.05	164.19	1280.9	334.21
365	1.5167	410.26	1289.1	351.87	283.33	1498.1	515.28	287.33	1496.9	162.94	344.22	1813.3	339.6	354.44	1057.2	470.37	367.44	1055.4	217.8	159.55	1074.9	372.61	161.86	1080.8	292	306.13	983.75	519.89	266.84	982.44	162.65	268.52	1129.2	500.08	298.72	1129.2	181.47	147.24	1043	334.03	409.2	757.83	514.17	493.09	705.39	481.4	434.25	672.54	497.7	471.1	793.26	492.29	490.86	579.39	489.81	496.28	580.71	361.43	435.37	357.96	496.38	491.09	290.38	479.25	426.91	281.63	484.99	499.12	365.78	490.75	448.47	148.55	465.72	470.04	153.34	381.51	388.89	104.83	412.56	399.59	72.506	384.7	392.06	75.194	449.14	562.82	64.381	507.49	599.39	67.357	393.26	659.82	84.941	443.18	307.75	723.12	192.68	347.79	640.06	253.16	280.27	638.16	211.75	370.23	729.67	228.89	251.53	543.11	230.08	276.09	550.63	349.77	170.01	322.23	245.47	224.03	251.64	252.38	153.55	252.71	265.45	236.02	320.61	238.42	178.12	110.07	270.05	186.81	129.81	356.71	95.563	75.636	310.6	97.13	46.531	341.57	100.22	51.525	279.89	280.45	45.153	246.76	297.02	40.443	367.75	370.81	53.252	315.06	231.92	1551.5	338.14	169.47	1280.5	334.28
366	1.5208	415.57	1288.7	351.94	288.53	1497.7	515.38	292.63	1496.6	163.05	349.47	1812.9	339.81	359.82	1056.7	470.55	372.62	1054.8	218	164.88	1074.5	372.93	167.05	1080.4	292.3	311.49	983.26	520.12	271.68	982.03	162.95	273.92	1128.9	500.28	304.01	1128.7	181.64	152.53	1042.7	334.41	412.91	756.68	514.07	496.57	703.81	481.34	437.52	671.29	497.49	474.97	791.76	492.25	494.5	578.16	489.57	499.66	579.42	361.16	444.75	355.33	495.77	502.35	289.38	478.81	438.44	278.8	484.23	508.29	364.92	490.39	463.88	146.23	464.91	485.57	151.81	380.81	405.74	100.86	411.51	417.5	69.003	383.57	409.69	71.226	447.95	580.54	65.11	506.82	617.27	69.644	392.78	677.04	88.751	443	310.81	722.8	192.97	350.47	639.37	253.27	282.86	637.99	211.98	373.4	728.93	229.12	253.45	543.01	230.25	278.11	550.36	349.94	170.97	322.4	245.69	224.74	251.62	252.55	154.29	252.97	265.68	236.98	320.54	238.55	178.3	110.2	270.21	187.13	129.87	356.87	95.663	75.741	310.75	97.192	46.597	341.69	100.28	51.683	280.01	280.48	45.166	246.79	297.1	40.315	367.8	370.91	53.024	315.07	237.17	1551.1	338.23	174.77	1280.1	334.35
